<?xml version="1.0"?>
<svg xmlns="http://www.w3.org/2000/svg" xmlns:xlink="http://www.w3.org/1999/xlink" xmlns:svgjs="http://svgjs.com/svgjs" version="1.1" width="512" height="512" x="0" y="0" viewBox="0 0 512 512" style="enable-background:new 0 0 512 512" xml:space="preserve" class=""><g><g xmlns="http://www.w3.org/2000/svg"><g><g><g><path d="m54.098 78.064c-29.878 0-54.098 24.22-54.098 54.098v211.173c0 29.877 24.22 54.098 54.098 54.098h5.118c4.68 0 8.22 4.235 7.391 8.841l-3.05 16.935h57.875l22.078-20.958c3.258-3.093 7.58-4.817 12.072-4.817h7.324 172.993c29.878 0 54.098-24.221 54.098-54.098v-265.272z" fill="#5996f0" data-original="#e49542" style="" class=""/></g><g><path d="m85.635 402.25-22.078 20.958-10.279 57.074c-1.002 5.565 5.688 9.175 9.789 5.282l87.767-83.315c3.258-3.093 7.58-4.817 12.072-4.817h-65.199c-4.493.001-8.814 1.725-12.072 4.818z" fill="#2b81fd" data-original="#e27d47" style="" class=""/><g><path d="m397.224 78.064h-11.101v265.271c0 29.877-24.221 54.098-54.098 54.098h65.199c29.877 0 54.098-24.22 54.098-54.098v-211.173c-.001-29.878-24.221-54.098-54.098-54.098z" fill="#2b81fd" data-original="#e27d47" style="" class=""/></g></g><g><g><path d="m292.314 173.137h-215.173c-4.268 0-7.726-3.459-7.726-7.726s3.459-7.726 7.726-7.726h215.173c4.268 0 7.726 3.459 7.726 7.726s-3.459 7.726-7.726 7.726z" fill="#f0f7ff" data-original="#f0f7ff" style="" class=""/></g><g><path d="m255.9 244.141h-178.759c-4.268 0-7.726-3.459-7.726-7.726s3.459-7.726 7.726-7.726h178.759c4.268 0 7.726 3.459 7.726 7.726s-3.458 7.726-7.726 7.726z" fill="#f0f7ff" data-original="#f0f7ff" style="" class=""/></g><g><path d="m255.9 315.145h-178.759c-4.268 0-7.726-3.459-7.726-7.726s3.459-7.726 7.726-7.726h178.759c4.268 0 7.726 3.459 7.726 7.726.001 4.267-3.458 7.726-7.726 7.726z" fill="#f0f7ff" data-original="#f0f7ff" style="" class=""/></g></g></g><g><path d="m428.976 84.022h-48.488v-34.972c0-13.39 10.854-24.244 24.244-24.244 13.39 0 24.244 10.854 24.244 24.244z" fill="#ffc250" data-original="#ffc250" style=""/><circle cx="404.732" cy="229.893" fill="#ffc250" r="42.453" data-original="#ffc250" style=""/><path d="m404.732 187.439c-6.676 0-12.99 1.545-18.61 4.291v76.325c5.62 2.746 11.934 4.291 18.61 4.291 23.446 0 42.453-19.007 42.453-42.453s-19.007-42.454-42.453-42.454z" fill="#ebb044" data-original="#ebb044" style=""/><g><path d="m464.377 128.113v-9.159c0-32.941-26.704-59.645-59.645-59.645-32.941 0-59.645 26.704-59.645 59.645v9.159c0 35.593-16.12 69.227-43.764 91.521-1.129.911-2.068 2.034-2.729 3.325-3.462 6.766 1.452 14.801 9.053 14.801h194.172c7.601 0 12.515-8.034 9.053-14.801-.661-1.291-1.6-2.415-2.729-3.325-27.646-22.294-43.766-55.929-43.766-91.521z" fill="#ffe07d" data-original="#ffe07d" style=""/></g><path d="m510.87 222.959c-.661-1.291-1.6-2.415-2.729-3.326-27.645-22.294-43.764-55.928-43.764-91.521v-9.159c0-32.941-26.704-59.645-59.645-59.645-11.953 0-23.075 3.529-32.407 9.583 16.387 10.63 27.237 29.073 27.237 50.062v9.159c0 35.593 16.12 69.227 43.765 91.521 1.129.911 2.068 2.034 2.729 3.326 3.462 6.766-1.452 14.801-9.053 14.801h64.815c7.6 0 12.514-8.035 9.052-14.801z" fill="#ffd064" data-original="#ffd064" style="" class=""/></g></g></g></g></svg>
