<?xml version="1.0"?>
<svg xmlns="http://www.w3.org/2000/svg" xmlns:xlink="http://www.w3.org/1999/xlink" xmlns:svgjs="http://svgjs.com/svgjs" version="1.1" width="512" height="512" x="0" y="0" viewBox="0 0 512 512" style="enable-background:new 0 0 512 512" xml:space="preserve" class=""><g><g xmlns="http://www.w3.org/2000/svg"><g><g><g><path d="m429.254 195.581c10.8 0 19.556-8.755 19.556-19.556v-121.09c0-10.8-8.755-19.555-19.554-19.555h-168.122c-10.79 0-19.537 8.739-19.554 19.525h-56.262c-5.274 0-7.449 6.763-3.164 9.838l55.079 39.516c2.727 1.957 4.345 5.108 4.345 8.465v63.302c0 10.8 8.755 19.556 19.556 19.556z" fill="#5996f0" data-original="#ffe07d" style="" class=""/><path d="m492.423 35.38h-65.169c10.8 0 19.556 8.755 19.556 19.556v121.09c0 10.8-8.755 19.556-19.556 19.556h65.169c10.8 0 19.556-8.755 19.556-19.556v-121.091c0-10.8-8.756-19.555-19.556-19.555z" fill="#2c7ff9" data-original="#ffd064" style="" class=""/></g><g><g><path d="m206.839 457.065-.002-121.12c-.017-10.786-8.764-19.525-19.554-19.525h-167.706c-10.8 0-19.555 8.755-19.555 19.556v121.09c0 10.8 8.755 19.556 19.556 19.556h167.707c10.799-.002 19.554-8.757 19.554-19.557z" fill="#1cffb3" data-original="#95d6a4" style="" class=""/></g><path d="m326.682 335.944h-56.262c-.017-10.786-8.764-19.525-19.554-19.525h-65.583c10.79 0 19.537 8.739 19.554 19.525l.002 121.12c0 10.8-8.755 19.556-19.556 19.556h65.583c10.8 0 19.556-8.755 19.556-19.556v-63.303c0-3.357 1.617-6.508 4.345-8.465l55.079-39.516c4.285-3.073 2.11-9.836-3.164-9.836z" fill="#70efbc" data-original="#78c2a4" style="" class=""/></g><g><g><path d="m473.476 84.836h-188.633c-4.267 0-7.726-3.459-7.726-7.726s3.459-7.726 7.726-7.726h188.633c4.267 0 7.726 3.459 7.726 7.726s-3.459 7.726-7.726 7.726z" fill="#f0f7ff" data-original="#f0f7ff" style="" class=""/></g><g><path d="m473.476 123.207h-188.633c-4.267 0-7.726-3.459-7.726-7.726s3.459-7.726 7.726-7.726h188.633c4.267 0 7.726 3.459 7.726 7.726 0 4.266-3.459 7.726-7.726 7.726z" fill="#f0f7ff" data-original="#f0f7ff" style="" class=""/></g><g><path d="m372.127 161.578h-87.284c-4.267 0-7.726-3.459-7.726-7.726s3.459-7.726 7.726-7.726h87.284c4.267 0 7.726 3.459 7.726 7.726s-3.459 7.726-7.726 7.726z" fill="#f0f7ff" data-original="#f0f7ff" style="" class=""/></g></g><g><g><path d="m233.183 364.745h-188.633c-4.267 0-7.726-3.459-7.726-7.726s3.459-7.726 7.726-7.726h188.633c4.267 0 7.726 3.459 7.726 7.726s-3.459 7.726-7.726 7.726z" fill="#f0f7ff" data-original="#f0f7ff" style="" class=""/></g><g><path d="m233.183 403.116h-188.633c-4.267 0-7.726-3.459-7.726-7.726s3.459-7.726 7.726-7.726h188.633c4.267 0 7.726 3.459 7.726 7.726s-3.459 7.726-7.726 7.726z" fill="#f0f7ff" data-original="#f0f7ff" style="" class=""/></g><g><path d="m233.183 441.487h-87.284c-4.267 0-7.726-3.459-7.726-7.726s3.459-7.726 7.726-7.726h87.284c4.267 0 7.726 3.459 7.726 7.726s-3.459 7.726-7.726 7.726z" fill="#f0f7ff" data-original="#f0f7ff" style="" class=""/></g></g></g><g><g><g><g><g><g><path d="m123.86 160.47c-3.526-.442-6.177-3.429-6.192-6.983l-.136-32.325-49.39.208.136 32.325c.015 3.554-2.611 6.562-6.133 7.035 0 0-9.12 31.169 30.988 31s30.727-31.26 30.727-31.26z" fill="#d5985c" data-original="#d5985c" style="" class=""/><path d="m110.609 264.769c8.088 0 14.641-6.565 14.632-14.653-.031-27.697-.101-45.406.002-49.626.253-10.452-4.156-19.732-11.883-25.93l-6.273-1.78c-15.331 5.832-33.695 1.85-44.941-12.05-10.505 1.408-31.842 4.74-43.115 9.817-12.255 5.522-19.072 17.883-18.701 30.583v49.007c0 8.081 6.551 14.632 14.632 14.632z" fill="#403f42" data-original="#e28086" style="" class=""/><g><path d="m186.578 200.49c.327-13.529-7.135-25.114-19.522-30.567-11.316-4.981-32.68-8.133-43.196-9.453l-.063.079c-4.596 5.749-10.402 9.819-16.71 12.231 9.229 6.117 14.601 16.203 14.322 27.71-.102 4.221-.033 21.929-.002 49.626.009 8.088-6.544 14.653-14.632 14.653h65.169c8.088 0 14.641-6.565 14.632-14.653-.031-27.697-.1-45.406.002-49.626z" fill="#6c6767" data-original="#dd636e" style="" class=""/></g></g></g></g></g></g><g><path d="m89.593 1.625-2.5-1.625h.003-11.217c-22.925 0-41.509 18.584-41.509 41.509v32.067h55.264z" fill="#403f42" data-original="#6b61b1" style="" class=""/><path d="m110.228 0h-23.135l.041 73.577h64.602v-32.068c.001-22.925-18.584-41.509-41.508-41.509z" fill="#252526" data-original="#5e54ac" style="" class=""/><path d="m80.402 137.925c5.817-8.021 9.252-17.882 9.252-28.548l-.035-61.98-.001-1.395c-6.604-.432-11.59-2.158-18.34-5.187-1.269-.569-2.643-.864-4.034-.864-5.441 0-9.852 4.411-9.852 9.852v10.345c0 5.556-4.504 13.428-10.06 13.428h-12.962c0 17.066 9.988 19.943 9.988 19.943 0 20.801 13.048 38.547 31.402 45.523z" fill="#d5985c" data-original="#d5985c" style="" class=""/><path d="m138.775 73.577c-5.556 0-10.06-7.872-10.06-13.428v-10.345c0-5.441-4.411-9.852-9.852-9.852-1.39 0-2.765.294-4.034.864-7.872 3.533-13.337 5.299-21.776 5.299-2.141 0-4.089-.115-5.935-.342l.035 61.98c0 11.917-4.287 22.828-11.394 31.292 5.375 2.043 11.202 3.172 17.294 3.172 26.894 0 48.695-21.802 48.695-48.695 0 0 9.988-2.878 9.988-19.943h-12.961z" fill="#c38959" data-original="#c38959" style="" class=""/></g></g><g><g><g><g><g><g><path d="m449.159 407.701c-3.526-.442-6.177-3.429-6.192-6.983l-.136-32.325-49.39.208.136 32.325c.015 3.554-2.611 6.562-6.133 7.035 0 0-9.12 31.169 30.988 31s30.727-31.26 30.727-31.26z" fill="#ffddce" data-original="#ffddce" style="" class=""/><path d="m435.909 512c8.088 0 14.641-6.565 14.632-14.653-.031-27.697-.101-45.405.002-49.626.238-9.844-3.658-18.648-10.568-24.817-2.087-1.863-4.79-2.893-7.588-2.893-15.344 5.868-33.679 1.87-44.941-12.05-10.505 1.408-31.842 4.74-43.115 9.817-12.255 5.522-19.071 17.884-18.701 30.583v49.007c0 8.081 6.551 14.632 14.632 14.632z" fill="#403f42" data-original="#e28086" style="" class=""/><g><path d="m511.877 447.721c.327-13.529-7.135-25.114-19.522-30.567-11.316-4.981-32.68-8.133-43.196-9.453l-.063.079c-4.596 5.749-10.402 9.819-16.71 12.231 9.229 6.117 14.601 16.203 14.322 27.71-.102 4.221-.033 21.929-.002 49.626.009 8.088-6.544 14.653-14.632 14.653h65.169c8.088 0 14.641-6.565 14.632-14.653-.031-27.697-.1-45.405.002-49.626z" fill="#6c6767" data-original="#dd636e" style="" class=""/></g></g></g></g></g></g><g><path d="m414.892 248.856-2.5-1.625h.004-11.218c-22.925 0-41.509 18.584-41.509 41.509v32.067h55.264z" fill="#e49542" data-original="#e49542" style="" class=""/><path d="m435.527 247.231h-23.135l.041 73.577h64.602v-32.068c.001-22.924-18.583-41.509-41.508-41.509z" fill="#e27d47" data-original="#e27d47" style="" class=""/><path d="m405.95 384.81c5.666-7.958 9.003-17.689 9.003-28.202l-.036-63.375c-6.604-.432-11.59-2.158-18.34-5.187-1.269-.569-2.643-.864-4.034-.864-5.441 0-9.852 4.411-9.852 9.852v10.345c0 5.556-4.504 13.428-10.06 13.428h-12.962c0 17.066 9.988 19.943 9.988 19.943 0 20.801 13.048 38.547 31.402 45.523z" fill="#ffddce" data-original="#ffddce" style="" class=""/><path d="m464.074 320.808c-5.556 0-10.06-7.872-10.06-13.428v-10.345c0-5.441-4.411-9.852-9.852-9.852-1.39 0-2.765.294-4.034.864-7.872 3.533-13.337 5.299-21.776 5.299-2.141 0-4.089-.115-5.935-.342l.035 61.98c0 11.917-4.287 22.828-11.394 31.292 5.375 2.043 11.202 3.172 17.294 3.172 26.894 0 48.695-21.802 48.695-48.695 0 0 9.988-2.878 9.988-19.943h-12.961z" fill="#ffcbbe" data-original="#ffcbbe" style="" class=""/></g></g></g></g></g></svg>
